<?xml version="1.0" encoding="UTF-8"?>
<svg width="100" height="100" viewBox="0 0 100 100" xmlns="http://www.w3.org/2000/svg">
  <!-- Background circle -->
  <circle cx="50" cy="50" r="48" fill="#667eea" stroke="#fff" stroke-width="2"/>
  
  <!-- Head -->
  <circle cx="50" cy="40" r="18" fill="#ffdbac"/>
  
  <!-- Eyes -->
  <circle cx="44" cy="36" r="2" fill="#333"/>
  <circle cx="56" cy="36" r="2" fill="#333"/>
  <circle cx="44.5" cy="35.5" r="0.5" fill="#fff"/>
  <circle cx="56.5" cy="35.5" r="0.5" fill="#fff"/>
  
  <!-- Nose -->
  <ellipse cx="50" cy="40" rx="1" ry="1.5" fill="#ffb380"/>
  
  <!-- Mouth -->
  <path d="M 46 44 Q 50 47 54 44" stroke="#333" stroke-width="1.5" fill="none" stroke-linecap="round"/>
  
  <!-- Hair -->
  <path d="M 35 32 Q 40 25 50 28 Q 60 25 65 32 Q 62 30 58 30 Q 54 28 50 28 Q 46 28 42 30 Q 38 30 35 32" fill="#8B4513"/>
  
  <!-- Body -->
  <ellipse cx="50" cy="70" rx="12" ry="15" fill="#4A90E2"/>
  
  <!-- Arms -->
  <ellipse cx="35" cy="65" rx="4" ry="8" fill="#ffdbac" transform="rotate(-20 35 65)"/>
  <ellipse cx="65" cy="65" rx="4" ry="8" fill="#ffdbac" transform="rotate(20 65 65)"/>
  
  <!-- Hands -->
  <circle cx="32" cy="72" r="3" fill="#ffdbac"/>
  <circle cx="68" cy="72" r="3" fill="#ffdbac"/>
  
  <!-- Animated elements -->
  <animateTransform attributeName="transform" type="rotate" values="0 50 50;2 50 50;0 50 50;-2 50 50;0 50 50" dur="4s" repeatCount="indefinite"/>
  
  <!-- Blinking animation -->
  <g>
    <rect x="42" y="35" width="4" height="2" fill="#ffdbac" opacity="0">
      <animate attributeName="opacity" values="0;1;0" dur="3s" repeatCount="indefinite" begin="0s"/>
    </rect>
    <rect x="54" y="35" width="4" height="2" fill="#ffdbac" opacity="0">
      <animate attributeName="opacity" values="0;1;0" dur="3s" repeatCount="indefinite" begin="0s"/>
    </rect>
  </g>
</svg>
